<mxfile host="app.diagrams.net" modified="2021-09-15T02:08:43.184Z" agent="5.0 (Macintosh; Intel Mac OS X 10_15_7) AppleWebKit/537.36 (KHTML, like Gecko) Chrome/93.0.4577.63 Safari/537.36" etag="u5rJWXNIhsC42AMdmUWg" version="14.9.5" type="github">
  <diagram id="Mv93yDD2noyU-7sGiF_x" name="第 1 页">
    <mxGraphModel dx="946" dy="502" grid="1" gridSize="10" guides="1" tooltips="1" connect="1" arrows="1" fold="1" page="1" pageScale="1" pageWidth="827" pageHeight="1169" math="0" shadow="0">
      <root>
        <mxCell id="0" />
        <mxCell id="1" parent="0" />
        <mxCell id="7fYxoL2FQBu_UpcpcX3o-11" style="edgeStyle=orthogonalEdgeStyle;rounded=0;orthogonalLoop=1;jettySize=auto;html=1;exitX=0.5;exitY=1;exitDx=0;exitDy=0;entryX=0;entryY=0.5;entryDx=0;entryDy=0;" edge="1" parent="1" source="7fYxoL2FQBu_UpcpcX3o-1" target="7fYxoL2FQBu_UpcpcX3o-3">
          <mxGeometry relative="1" as="geometry" />
        </mxCell>
        <mxCell id="7fYxoL2FQBu_UpcpcX3o-1" value="source&lt;br&gt;(kafka/rabbitmq&lt;br&gt;15种)" style="rounded=1;whiteSpace=wrap;html=1;fillColor=#ffe6cc;strokeColor=#d79b00;" vertex="1" parent="1">
          <mxGeometry x="200" y="190" width="90" height="60" as="geometry" />
        </mxCell>
        <mxCell id="7fYxoL2FQBu_UpcpcX3o-2" value="sink（es/hbase/&lt;br&gt;12种）" style="rounded=1;whiteSpace=wrap;html=1;fillColor=#ffe6cc;strokeColor=#d79b00;" vertex="1" parent="1">
          <mxGeometry x="480" y="340" width="90" height="60" as="geometry" />
        </mxCell>
        <mxCell id="7fYxoL2FQBu_UpcpcX3o-12" style="edgeStyle=orthogonalEdgeStyle;rounded=0;orthogonalLoop=1;jettySize=auto;html=1;exitX=1;exitY=0.5;exitDx=0;exitDy=0;entryX=0.5;entryY=0;entryDx=0;entryDy=0;" edge="1" parent="1" source="7fYxoL2FQBu_UpcpcX3o-3" target="7fYxoL2FQBu_UpcpcX3o-2">
          <mxGeometry relative="1" as="geometry" />
        </mxCell>
        <mxCell id="7fYxoL2FQBu_UpcpcX3o-3" value="&lt;span style=&quot;font-size: 10.5pt ; text-align: justify&quot;&gt;采用Antlr4&lt;/span&gt;&lt;span style=&quot;font-size: 10.5pt ; text-align: justify&quot;&gt;语言语法&amp;nbsp; 解析器解析DSL&lt;/span&gt;" style="rounded=0;whiteSpace=wrap;html=1;fillColor=#dae8fc;strokeColor=#6c8ebf;" vertex="1" parent="1">
          <mxGeometry x="320" y="220" width="130" height="100" as="geometry" />
        </mxCell>
        <mxCell id="7fYxoL2FQBu_UpcpcX3o-4" value="Pulsar IO" style="text;html=1;strokeColor=none;fillColor=none;align=center;verticalAlign=middle;whiteSpace=wrap;rounded=0;" vertex="1" parent="1">
          <mxGeometry x="215" y="170" width="60" height="20" as="geometry" />
        </mxCell>
        <mxCell id="7fYxoL2FQBu_UpcpcX3o-5" value="Pulsar IO" style="text;html=1;strokeColor=none;fillColor=none;align=center;verticalAlign=middle;whiteSpace=wrap;rounded=0;rotation=0;" vertex="1" parent="1">
          <mxGeometry x="495" y="320" width="60" height="20" as="geometry" />
        </mxCell>
        <mxCell id="7fYxoL2FQBu_UpcpcX3o-13" value="Pulsar Function" style="text;html=1;strokeColor=none;fillColor=none;align=center;verticalAlign=middle;whiteSpace=wrap;rounded=0;" vertex="1" parent="1">
          <mxGeometry x="340" y="200" width="97.5" height="20" as="geometry" />
        </mxCell>
        <mxCell id="7fYxoL2FQBu_UpcpcX3o-14" style="edgeStyle=orthogonalEdgeStyle;rounded=0;orthogonalLoop=1;jettySize=auto;html=1;exitX=0.5;exitY=1;exitDx=0;exitDy=0;entryX=0;entryY=0.5;entryDx=0;entryDy=0;" edge="1" parent="1" source="7fYxoL2FQBu_UpcpcX3o-15" target="7fYxoL2FQBu_UpcpcX3o-18">
          <mxGeometry relative="1" as="geometry" />
        </mxCell>
        <mxCell id="7fYxoL2FQBu_UpcpcX3o-15" value="source&lt;br&gt;(kafka/rabbitmq&lt;br&gt;15种)" style="rounded=1;whiteSpace=wrap;html=1;fillColor=#ffe6cc;strokeColor=#d79b00;" vertex="1" parent="1">
          <mxGeometry x="170" y="560" width="90" height="60" as="geometry" />
        </mxCell>
        <mxCell id="7fYxoL2FQBu_UpcpcX3o-16" value="sink（es/hbase/&lt;br&gt;12种）" style="rounded=1;whiteSpace=wrap;html=1;fillColor=#ffe6cc;strokeColor=#d79b00;" vertex="1" parent="1">
          <mxGeometry x="570" y="820" width="90" height="60" as="geometry" />
        </mxCell>
        <mxCell id="7fYxoL2FQBu_UpcpcX3o-17" style="edgeStyle=orthogonalEdgeStyle;rounded=0;orthogonalLoop=1;jettySize=auto;html=1;exitX=1;exitY=0.5;exitDx=0;exitDy=0;entryX=0.5;entryY=0;entryDx=0;entryDy=0;" edge="1" parent="1" source="7fYxoL2FQBu_UpcpcX3o-18" target="7fYxoL2FQBu_UpcpcX3o-16">
          <mxGeometry relative="1" as="geometry" />
        </mxCell>
        <mxCell id="7fYxoL2FQBu_UpcpcX3o-18" value="" style="rounded=0;whiteSpace=wrap;html=1;fillColor=#dae8fc;strokeColor=#6c8ebf;" vertex="1" parent="1">
          <mxGeometry x="290" y="590" width="270" height="220" as="geometry" />
        </mxCell>
        <mxCell id="7fYxoL2FQBu_UpcpcX3o-19" value="Pulsar IO" style="text;html=1;strokeColor=none;fillColor=none;align=center;verticalAlign=middle;whiteSpace=wrap;rounded=0;" vertex="1" parent="1">
          <mxGeometry x="185" y="540" width="60" height="20" as="geometry" />
        </mxCell>
        <mxCell id="7fYxoL2FQBu_UpcpcX3o-21" value="Pulsar Function" style="text;html=1;strokeColor=none;fillColor=none;align=center;verticalAlign=middle;whiteSpace=wrap;rounded=0;" vertex="1" parent="1">
          <mxGeometry x="371.25" y="570" width="97.5" height="20" as="geometry" />
        </mxCell>
        <mxCell id="7fYxoL2FQBu_UpcpcX3o-22" value="pipeline" style="text;html=1;strokeColor=none;fillColor=none;align=center;verticalAlign=middle;whiteSpace=wrap;rounded=0;" vertex="1" parent="1">
          <mxGeometry x="300" y="585" width="40" height="30" as="geometry" />
        </mxCell>
        <mxCell id="7fYxoL2FQBu_UpcpcX3o-27" style="edgeStyle=orthogonalEdgeStyle;rounded=0;orthogonalLoop=1;jettySize=auto;html=1;exitX=0.5;exitY=1;exitDx=0;exitDy=0;entryX=0.5;entryY=0;entryDx=0;entryDy=0;" edge="1" parent="1" source="7fYxoL2FQBu_UpcpcX3o-23" target="7fYxoL2FQBu_UpcpcX3o-24">
          <mxGeometry relative="1" as="geometry" />
        </mxCell>
        <mxCell id="7fYxoL2FQBu_UpcpcX3o-23" value="DSL parser" style="rounded=1;whiteSpace=wrap;html=1;" vertex="1" parent="1">
          <mxGeometry x="336" y="610" width="78" height="30" as="geometry" />
        </mxCell>
        <mxCell id="7fYxoL2FQBu_UpcpcX3o-28" style="edgeStyle=orthogonalEdgeStyle;rounded=0;orthogonalLoop=1;jettySize=auto;html=1;exitX=0.5;exitY=1;exitDx=0;exitDy=0;entryX=0.5;entryY=0;entryDx=0;entryDy=0;" edge="1" parent="1" source="7fYxoL2FQBu_UpcpcX3o-24" target="7fYxoL2FQBu_UpcpcX3o-25">
          <mxGeometry relative="1" as="geometry" />
        </mxCell>
        <mxCell id="7fYxoL2FQBu_UpcpcX3o-24" value="codegen" style="rounded=1;whiteSpace=wrap;html=1;" vertex="1" parent="1">
          <mxGeometry x="336" y="660" width="78" height="30" as="geometry" />
        </mxCell>
        <mxCell id="7fYxoL2FQBu_UpcpcX3o-29" style="edgeStyle=orthogonalEdgeStyle;rounded=0;orthogonalLoop=1;jettySize=auto;html=1;exitX=0.5;exitY=1;exitDx=0;exitDy=0;entryX=0.5;entryY=0;entryDx=0;entryDy=0;" edge="1" parent="1" source="7fYxoL2FQBu_UpcpcX3o-25" target="7fYxoL2FQBu_UpcpcX3o-26">
          <mxGeometry relative="1" as="geometry" />
        </mxCell>
        <mxCell id="7fYxoL2FQBu_UpcpcX3o-25" value="JavaCompiler" style="rounded=1;whiteSpace=wrap;html=1;" vertex="1" parent="1">
          <mxGeometry x="336" y="710" width="78" height="30" as="geometry" />
        </mxCell>
        <mxCell id="7fYxoL2FQBu_UpcpcX3o-26" value="Classloader" style="rounded=1;whiteSpace=wrap;html=1;" vertex="1" parent="1">
          <mxGeometry x="336" y="760" width="78" height="30" as="geometry" />
        </mxCell>
        <mxCell id="7fYxoL2FQBu_UpcpcX3o-30" value="AST" style="text;html=1;strokeColor=none;fillColor=none;align=center;verticalAlign=middle;whiteSpace=wrap;rounded=0;" vertex="1" parent="1">
          <mxGeometry x="380" y="640" width="40" height="20" as="geometry" />
        </mxCell>
        <mxCell id="7fYxoL2FQBu_UpcpcX3o-31" value="JavaSource" style="text;html=1;strokeColor=none;fillColor=none;align=center;verticalAlign=middle;whiteSpace=wrap;rounded=0;" vertex="1" parent="1">
          <mxGeometry x="394" y="690" width="40" height="20" as="geometry" />
        </mxCell>
        <mxCell id="7fYxoL2FQBu_UpcpcX3o-32" value="Class" style="text;html=1;strokeColor=none;fillColor=none;align=center;verticalAlign=middle;whiteSpace=wrap;rounded=0;" vertex="1" parent="1">
          <mxGeometry x="380" y="740" width="40" height="20" as="geometry" />
        </mxCell>
        <mxCell id="7fYxoL2FQBu_UpcpcX3o-33" value="Experssion&lt;br&gt;Register" style="ellipse;whiteSpace=wrap;html=1;direction=south;" vertex="1" parent="1">
          <mxGeometry x="447.5" y="615" width="102.5" height="160" as="geometry" />
        </mxCell>
        <mxCell id="7fYxoL2FQBu_UpcpcX3o-34" value="channel&lt;br&gt;（Disruptor）" style="text;html=1;align=center;verticalAlign=middle;resizable=0;points=[];autosize=1;strokeColor=none;" vertex="1" parent="1">
          <mxGeometry x="200" y="670" width="90" height="30" as="geometry" />
        </mxCell>
        <mxCell id="7fYxoL2FQBu_UpcpcX3o-35" value="channel&lt;br&gt;（Disruptor）" style="text;html=1;align=center;verticalAlign=middle;resizable=0;points=[];autosize=1;strokeColor=none;" vertex="1" parent="1">
          <mxGeometry x="560" y="670" width="90" height="30" as="geometry" />
        </mxCell>
      </root>
    </mxGraphModel>
  </diagram>
</mxfile>
